<?xml version="1.0" encoding="iso-8859-1"?>
<!-- Generator: Adobe Illustrator 16.0.0, SVG Export Plug-In . SVG Version: 6.00 Build 0)  -->
<!DOCTYPE svg PUBLIC "-//W3C//DTD SVG 1.1//EN" "http://www.w3.org/Graphics/SVG/1.1/DTD/svg11.dtd">
<svg version="1.1" id="Capa_1" xmlns="http://www.w3.org/2000/svg" xmlns:xlink="http://www.w3.org/1999/xlink" x="0px" y="0px"
	 width="512.001px" height="512px" viewBox="0 0 512.001 512" style="enable-background:new 0 0 512.001 512;" xml:space="preserve"
	>
<g>
	<path d="M409.188,363.907c11.438-0.531,22.75-5.063,31.438-13.75c18.75-18.75,18.5-48.906-0.188-67.656L180.219,22.297
		c0,0-3.5-3.984-5.406-5.891c-21.875-21.875-57.344-21.875-79.219,0L16.406,95.594c-21.875,21.875-21.875,57.359,0,79.203
		c1.906,1.938,3.813,3.781,5.906,5.375l260.25,260.203c18.688,18.719,48.876,18.969,67.563,0.312c8.75-8.75,13.25-20,13.812-31.53
		c11.5-0.563,22.75-5.063,31.438-13.72C404.126,386.657,408.626,375.438,409.188,363.907z M304.876,418.063L89.938,203.094
		l22.625-22.641l214.938,214.953c6.25,6.25,6.25,16.375,0,22.656C321.251,424.313,311.126,424.282,304.876,418.063z
		 M350.126,372.782L135.188,157.829l22.625-22.641l214.938,214.969c6.25,6.188,6.25,16.375,0,22.656
		C366.501,379.032,356.376,378.969,350.126,372.782z M395.376,327.532L180.438,112.562l22.625-22.625l214.938,215
		c6.313,6.188,6.25,16.344,0,22.594S401.688,333.75,395.376,327.532z M349.813,479.063c8.375-3.875,16.22-9.031,22.938-15.75
		c7.875-7.875,13.906-17.22,17.875-27.47c10.188-3.938,19.531-9.969,27.406-17.812c7.844-7.875,13.875-17.22,17.812-27.438
		c10.22-3.938,19.563-9.969,27.406-17.812c6.875-6.875,11.969-14.781,15.781-23.156L512.001,512L349.813,479.063z"/>
</g>
<g>
</g>
<g>
</g>
<g>
</g>
<g>
</g>
<g>
</g>
<g>
</g>
<g>
</g>
<g>
</g>
<g>
</g>
<g>
</g>
<g>
</g>
<g>
</g>
<g>
</g>
<g>
</g>
<g>
</g>
</svg>
